# xmcd
#
# Track frame offsets:
#	150
#	11976
#	26836
#	40132
#	55761
#	72589
#	88193
#	102846
#	116281
#	132194
#	146375
#	162385
#
# Disc length: 2347 seconds
#
# Revision: 0
# Processed by: cddbd v1.5.2PL0 Copyright (c) Steve Scherf et al.
# Submitted via: EasyCDDAExtractor 11.6.0.1
#
DISCID=a409290c
DTITLE=银霞 - [1981] 期待
DYEAR=1981
DGENRE=
TTITLE0=一朵小花满身泥
TTITLE1=泥泞中的小花
TTITLE2=为何
TTITLE3=第二次一对一
TTITLE4=今夜
TTITLE5=老渔翁
TTITLE6=期待
TTITLE7=奔放的旋律
TTITLE8=问吉他
TTITLE9=梦中小径
TTITLE10=现代小姐
TTITLE11=圈圈歌
EXTD=
EXTT0=
EXTT1=
EXTT2=
EXTT3=
EXTT4=
EXTT5=
EXTT6=
EXTT7=
EXTT8=
EXTT9=
EXTT10=
EXTT11=
PLAYORDER=
